# xmcd
#
# Track frame offsets: 
#        150
#        18709
#        36840
#        50607
#        65649
#        82151
#        97303
#        114538
#        134083
#        151211
#        169704
#        185187
#        199489
#        221748
#        239931
#        258889
#
# Disc length: 3676 seconds
#
# Revision: 0
# Processed by: cddbd v1.5.2PL0 Copyright (c) Steve Scherf et al.
# Submitted via: ExactAudioCopy v0.99pb3
#
DISCID=060e5a10
DTITLE=Виталий Несмашный - Провинциальная любовь
DYEAR=2008
DGENRE=Soul
TTITLE0=Бедная любовь моя
TTITLE1=Если ты когда-нибудь забудешь
TTITLE2=В день рождения твой
TTITLE3=Счастья нет нигде
TTITLE4=Первый поцелуй
TTITLE5=Свеча
TTITLE6=Моя душа наедине с собой
TTITLE7=Уйду и не вернусь...
TTITLE8=Безумно влюблён
TTITLE9=Осень
TTITLE10=Марина с нашего двора
TTITLE11=Призрачный рай
TTITLE12=Свет в твоём окне
TTITLE13=Цыганка
TTITLE14=Детство
TTITLE15=Свеча (Radio version)
EXTD=
EXTT0=
EXTT1=
EXTT2=
EXTT3=
EXTT4=
EXTT5=
EXTT6=
EXTT7=
EXTT8=
EXTT9=
EXTT10=
EXTT11=
EXTT12=
EXTT13=
EXTT14=
EXTT15=
PLAYORDER=
